# xmcd CD database file
#
# Track frame offsets:
#	182
#	27815
#	54092
#	76672
#	96800
#	118455
#	161085
#	183092
#	199970
#	215960
#	237755
#	257332
#	295350
#
# Disc length: 4234 seconds
#
# Revision: 2
# Processed by: cddbd v1.4b41PL1 Copyright (c) Steve Scherf et al.
# Submitted via: Feurio! 1.60 - http://www.feurio.com
#
DISCID=b010880d,b110880d
DTITLE=Michael Stanley Band - Stage Pass (live)
DYEAR=1900
DGENRE=
TTITLE0=Midwest Midnight
TTITLE1=One Good Reason
TTITLE2=Real Good Time
TTITLE3=Nothing's Gonna Change My Mind
TTITLE4=Calcutta Auction
TTITLE5=Movin' Right Along
TTITLE6=Will You Love Me Tomorrow
TTITLE7=Waste A Little Time On Me
TTITLE8=Pierette
TTITLE9=Rosewood Bitters
TTITLE10=Wild Sanctuary
TTITLE11=Let's Get The Show On The Road
TTITLE12=Strike Up The Band
EXTD=
EXTT0=
EXTT1=
EXTT2=
EXTT3=
EXTT4=
EXTT5=
EXTT6=
EXTT7=
EXTT8=
EXTT9=
EXTT10=
EXTT11=
EXTT12=
PLAYORDER=
